<?xml version="1.0" encoding="utf-8"?>
<!-- Generator: Adobe Illustrator 12.0.1, SVG Export Plug-In . SVG Version: 6.00 Build 51448)  -->
<!DOCTYPE svg PUBLIC "-//W3C//DTD SVG 1.1//EN" "http://www.w3.org/Graphics/SVG/1.1/DTD/svg11.dtd" [
<!ENTITY ns_svg "http://www.w3.org/2000/svg">
<!ENTITY ns_xlink "http://www.w3.org/1999/xlink">
]>
<svg xmlns="http://www.w3.org/2000/svg" xmlns:xlink="http://www.w3.org/1999/xlink" xmlns:svg="http://www.w3.org/2000/svg" xmlns:dc="http://purl.org/dc/elements/1.1/" xmlns:cc="http://web.resource.org/cc/" xmlns:rdf="http://www.w3.org/1999/02/22-rdf-syntax-ns#" version="1.1" id="Layer_1" width="247.339" height="470.88" viewBox="0 0 247.339 470.88" overflow="visible" enable-background="new 0 0 247.339 470.88" xml:space="preserve">
<g>
	<path fill-rule="evenodd" clip-rule="evenodd" d="M195.84,113.76c0.964-0.163,1.502,0.098,1.44,0.96c-0.48,0-0.96,0-1.44,0   C195.84,114.4,195.84,114.08,195.84,113.76z"/>
	<path fill-rule="evenodd" clip-rule="evenodd" d="M106.56,140.64c0.8,0,1.6,0,2.4,0c0.894,1.347,1.132,3.349,3.36,3.36   c0,1.6,0,3.2,0,4.8c-3.031,1.657-6.939,4.084-11.04,1.92c-0.317-1.762-0.439-3.721-2.4-3.84c-0.225-1.024,0.686-0.915,1.44-0.96   c-0.082-1.604,0.211-3.256,0.96-4.32c0.621-0.882,1.447-0.285,2.88-0.96c-1.033,0.487,1.449-2.505,0.96,0l-0.48,0.48l0.48,0.48   c0,0.48,0,0.96,0,1.44c-0.64,0-1.28,0-1.92,0c0.663,1.943-1.042,1.518-0.96,2.88c-0.082,1.362,1.623,0.937,0.96,2.88   c0.96,0,1.92,0,2.88,0c-0.086-1.834-2.534-1.306-1.92-3.84c1.943,0.663,1.518-1.042,2.88-0.96c0.359-1.479-1.655-0.585-0.96-2.4   l0.72-0.24L106.56,140.64z"/>
	<path fill-rule="evenodd" clip-rule="evenodd" d="M136.32,149.76c0.32,0,0.64,0,0.96,0c0,0.32,0,0.64,0,0.96c-0.32,0-0.64,0-0.96,0   C136.32,150.4,136.32,150.08,136.32,149.76z"/>
	<path fill-rule="evenodd" clip-rule="evenodd" d="M185.28,116.64c-0.48,0-0.96,0-1.44,0c0,0.32,0,0.64,0,0.96l-0.239,0.72   l0.239,0.72c-0.64,0-1.279,0-1.92,0c0-0.48,0-0.96,0-1.44c-2.233,0.634-1.606-1.593-3.84-0.96c-0.745,2.025,2.665-0.105,1.92,1.92   l-0.72-0.24l-0.24,0.72c-0.96,0-1.92,0-2.88,0c0,0.48,0,0.96,0,1.44l-0.72-0.24l-0.24,0.72c-0.16,0-0.32,0-0.48,0   c-0.993,1.406-2.767,2.033-3.84,3.36c3.281,1.483,5.87,6.718,3.36,11.04c3.809,2.112,8.543,3.297,9.6,8.16   c3.657,0.183,3.245,4.435,6.24,5.28c-0.728,9.528,4.803,12.797,5.76,20.64c0.078,0.562,0.876,0.405,1.44,0.48   c1.29,4.47,3.209,8.311,4.8,12.48c0.803,0.637,1.023,1.856,2.88,1.44c-0.202,2.762,0.266,4.854,1.92,5.76   c-0.164,5.765,2.981,8.219,1.92,14.88c0.078,0.562,0.876,0.405,1.44,0.48c0,1.6,0,3.2,0,4.8c-0.48,0-0.96,0-1.44,0   c1.293,8.652-2.758,11.961-2.88,19.2c-2.588,1.892-2.041,6.918-4.8,8.64c-0.147,1.438,0.194,2.914,0,4.32   c-0.144,1.039-0.77,0.663-0.96,1.439c-1.53,6.237,0.932,13.879,0,19.681c-0.167,1.04-0.773,0.478-0.96,0.96   c-0.34,0.877,0.244,2.06,0,2.88c-0.031,0.104-0.88-0.096-0.96,0c-0.404,0.482,0.243,2.069,0,2.88c0.118-0.396-1.94,1.493-0.96,2.88   c-0.48,0-0.96,0-1.44,0c-0.133,1.287,0.183,2.151,0,3.36c-0.167,1.106-0.705,0.408-0.96,0.96c-0.383,0.83,0.216,2.113,0,2.88   c-0.238,0.848-0.862,0.798-0.96,1.44c-0.302,1.99,0.337,3.818,0,5.76c-0.2,1.157-0.559,1.44-0.96,3.84   c-0.182,1.089-0.709,0.416-0.96,0.96c-0.378,0.82,0.132,2.449,0,2.88c-0.024,0.078-0.942-0.077-0.96,0   c-0.302,1.37,0.226,2.934,0,4.32c-2.254,0.465-1.922,3.519-3.84,4.319c-0.695,1.815,1.319,0.922,0.96,2.4   c-4.236-0.556-1.396,5.965-4.32,6.72c2.408,0.792,1.658,4.743,4.32,5.28c-0.108,1.812,0.504,4.344-0.96,4.8   c0.749,1.491,0.717,3.764,1.92,4.8c-0.354,2.163-1.291,1.573,0,3.36c-2.549,0.651,0.562,6.963-1.92,7.68   c0.312,0.488,1.104,0.497,0.96,1.44c-2.113,0.926-0.893,5.188-2.88,6.24c0,1.279,0,2.56,0,3.84c-0.48,0-0.96,0-1.44,0   c-0.697,6.022-1.304,12.136-3.84,16.32c-0.694,1.814,1.319,0.921,0.96,2.399c-0.64,0-1.279,0-1.92,0   c-1.152,2.467-0.225,4.993-0.96,7.2c-0.034,0.104-0.864-0.087-0.96,0c-0.31,0.281,0.218,1.544,0,1.92   c-0.077,0.134-0.89-0.136-0.96,0c-0.196,0.377,0.301,1.646,0,1.92c-0.31,0.281-1.683,1.044-0.96,3.36   c-2.618,1.222-2.998,4.682-5.28,6.24c1.97,0.358,3.942-3.41,6.24-4.32c-0.711-2.791,1.487-2.673,0.96-5.28   c3.301-0.859,2.127-6.193,4.8-7.68c-0.022-2.743,0.521-4.92,1.92-6.24c0-1.28,0-2.56,0-3.84c2.896-0.331,1.885-3.48,2.4-5.28   c1.238-4.325,3.65-8.997,3.84-13.92c1.554,0.593,0.367-1.553,1.92-0.96c0.238-2.06-0.022-3.104,0.96-4.8   c0.078-0.134,0.89,0.136,0.96,0c0.196-0.377-0.3-1.646,0-1.92c0.11-0.101,0.906,0.123,0.96,0c0.826-1.889-0.06-4.831,2.4-4.32   c0-0.96,0-1.92,0-2.88c2.319-2.001,4.354-4.285,4.8-8.16c1.26-0.341,2.158-1.042,1.92-2.88c1.65-1.229,3.757-2.003,3.84-4.8   c2.071-0.81,3.511-2.249,4.32-4.32c1.819,1.051,2.11-1.39,2.88-1.92c0.714-0.492,2.547,0.8,1.92-0.96   c4.273-0.527,10.725,1.125,13.44-0.96c1.553-0.273,2.414,0.146,2.88,0.96c4.58-2.423,9.83,1.722,13.92,2.88   c0.701,4.861-1.445,6.874-2.4,10.08c-4.534-0.375-6.619,1.701-11.52,0.96c-4.724,2.316-10.035,4.045-11.04,10.08   c-2.218,0.342-2.437,2.684-2.4,5.28c-2.759,1.721-2.212,6.747-4.8,8.64c0,1.12,0,2.24,0,3.36c-1.905,0.335-0.975,3.505-2.88,3.84   c0.27,3.629-1.994,4.726-1.92,8.16c-0.48,0-0.96,0-1.44,0c-0.161,1.208,0.216,2.549,0,3.84c-0.183,1.095-0.701,0.409-0.96,0.96   c-0.729,1.554-0.545,4.511-0.96,5.76c-0.026,0.081-0.942-0.079-0.96,0c-0.302,1.371,0.266,2.939,0,4.32   c-0.202,1.052-0.724,0.437-0.96,0.96c-0.429,0.949,0.225,2.705,0,3.84c-0.199,1.005-0.719,0.68-0.96,1.44   c-0.473,1.49,0.32,3.354,0,4.8c-0.741,3.354-3.236,6.439-2.88,10.08c-1.772,0.397-1.155,2.34-1.92,3.84   c-0.068,0.135-0.883-0.133-0.96,0c-0.218,0.376,0.31,1.639,0,1.92c-0.234,0.213-1.71,0.892-0.96,2.88c-0.48,0-0.96,0-1.44,0   c0,1.12,0,2.24,0,3.36c-4.896,2.784-6.405,8.955-12.479,10.56c-1.417,3.223-4.976,4.305-7.68,6.24   c-1.837,0.236-1.533-1.667-3.841-0.96c-0.024,3.385,3.96,2.761,4.32,5.76c-1.325,3.475-3.165,6.436-7.2,7.2c0,1.28,0,2.56,0,3.84   c2.282-1.275,0.795-0.521,0.96,1.92c6.489,1.031,3.761,11.279,4.32,18.24c-1.479-0.359-0.585,1.654-2.4,0.96   c0.079,5.039-4.246,5.673-5.76,9.12c-4.126-0.126-7.139,0.861-10.08,1.92c0.073-0.529-0.1-0.891-0.479-0.96   c-6.795-1.243-16.798,0.925-24.48,0c-0.424-1.177-1.438-1.762-0.96-3.84c-2.504-0.265-4.1,0.38-3.84,2.88   c-3.164,1.307-9.59,1.689-11.52-0.96c-0.365,0.755-1.523,0.717-1.44,1.92c-6.047,0.447-11.15-0.05-12-4.8c-0.8,0-1.6,0-2.4,0   c-0.239-4.082-3.655-4.985-3.84-9.12c-3.709,2.047-6.636-0.122-10.08-0.96c0.709-2.149-1.405-1.475-0.96-3.36   c-3.565-0.313-6.391,0.438-9.12,0c-3.508-0.563-5.61-3.194-8.64-3.84c-1.003-3.597,1.056-3.982,0.96-7.68   c-0.207-1.073-2.366-0.194-3.36-0.48c-0.691,0.108-0.167,1.433-0.96,1.44c-1.024,0.224-0.915-0.687-0.96-1.44   c-3.646,0.777-6.668-2.583-9.12,0c-3.342-1.458-6.062-3.538-9.6-4.8c-1.414-1.946-2.664-4.057-5.28-4.8   c-0.744-2.617-2.854-3.866-4.8-5.28c-0.641-3.52-3.535-4.785-5.76-6.72c0-0.641,0-1.28,0-1.92c-0.87-0.41-1.324-1.236-2.4-1.44   c-0.641-3.519-3.535-4.785-5.76-6.72c-0.83-3.65-2.462-6.498-3.84-9.601c-0.108-1.812,0.504-4.344-0.96-4.8c0-1.439,0-2.88,0-4.319   c-0.078-0.562-0.875-0.405-1.44-0.48c0.202-2.762-0.266-4.854-1.92-5.76c0-1.601,0-3.2,0-4.8c-2.131-1.549-1.475-5.886-3.84-7.2   c-0.221-2.02,0.678-5.158-0.96-5.76c-0.55-1.511,0.753-1.167,0.96-1.921c-0.755-0.365-0.717-1.522-1.92-1.439   c-0.52-6.04-2.272-10.849-2.88-16.8c-0.078-0.562-0.875-0.405-1.44-0.48c-1.514-6.229,0.462-8.299-0.96-12.96   c2.497,0.417-0.743-4.903,2.4-3.84c-0.296-4.615,1.694-6.945,0.96-12c4.379-3.141,7.482-7.558,8.64-13.92   c1.479,0.358,0.585-1.655,2.4-0.96c0.224-1.024-0.686-0.914-1.44-0.96c0-10.72,0-21.44,0-32.16c0.48,0,0.96,0,1.44,0   c0-1.76,0-3.521,0-5.28c1.344-3.099,1.167-6.038,1.92-9.6c0.156-0.736,0.927-0.802,0.96-0.96c0.214-1.047-0.256-2.385,0-3.36   c0.251-0.959,0.737-0.478,0.96-0.96c0.659-1.428-0.088-2.989,0.96-4.8c0.066-0.115,0.917,0.118,0.96,0   c0.992-2.687,0.027-5.71,2.88-6.24c0.079-3.601,1.434-5.926,4.32-6.72c-0.238-1.838,0.66-2.54,1.92-2.88c0-1.12,0-2.24,0-3.36   c1.723-0.197,0.763-3.077,2.88-2.88c0.429-2.452,1.355-4.405,2.88-5.76c0.177-2.863,1.36-4.721,2.88-6.24c0-0.96,0-1.92,0-2.88   c1.815,0.695,0.921-1.319,2.4-0.96c0.165-3.835,3.861-4.139,3.84-8.16c1.362,0.082,0.937-1.623,2.88-0.96   c-0.18-4.181,2.686-5.314,2.88-9.12c0.48,0,0.96,0,1.44,0c0.648-5.271,1.878-9.962,1.92-15.84c1.217-1.264,1.217-3.536,0-4.8   c1.528-3.687,3.398-6.436,2.88-11.04c3.493,0.773,3.243-2.198,3.84-4.32c4.305-0.335,5.245-4.036,10.08-3.84   c-1.822-2.203-6.117-7.111-1.92-9.6c-0.617-1.783-3.311-1.489-5.76-1.44c-1.876,3.244-6.813,3.427-8.16,7.2   c-3.668,0.012-3.532,3.828-7.2,3.84v-0.96h-0.96c0.752-3.254,7.045-3.508,5.76-7.2l0.24-0.72l-0.72-0.24c0-0.32,0-0.64,0-0.96   c-0.48,0-0.96,0-1.44,0v-0.96h-0.96c0.821-2.539,4.463-2.257,6.24-3.84v0.96h0.96c0,0.32,0,0.64,0,0.96   c1.453-1.107,3.902-1.218,4.8-2.88c-1.943-0.664-1.518,1.042-2.88,0.96v-0.96h-0.96c0-0.16,0-0.32,0-0.48   c0.524-1.685-2.945-1.285-1.92,0.48c-2.645-0.725-2.549,1.29-4.8,0.96l0.24-0.72l-0.72-0.24c0-0.32,0-0.64,0-0.96   c-0.149-0.651-1.202-0.398-1.92-0.48c-0.287,1.248,0.193,1.728,1.44,1.44l-0.24,0.72l0.72,0.24c-1.08,2.121-4.681,1.719-5.76,3.84   c-0.8,0-1.6,0-2.4,0c-0.058,1.382-2.632,0.248-2.4,1.92c-4.593-0.272-6.313,2.327-10.08,2.88c-0.767-3.007,1.469-3.011,1.92-4.8   c5.098-0.182,7.627-2.933,12-3.84c0-1.12,0-2.24,0-3.36c0.64,0,1.28,0,1.92,0c0-1.28,0-2.56,0-3.84   c4.373-0.907,6.902-3.658,12-3.84c-0.661-3.045,2.641-5.669,0-7.68c-1.238-6.336,2.154-12.697,0-16.8   c0.974-7.854-3.001-10.759-1.92-18.72c-1.553-0.593-0.367,1.553-1.92,0.96c1.076-1.374,0.981-2.334-0.96-2.88   c-0.085-3.435,0.644-7.684-2.4-8.16c0.055-3.895-0.64-7.04-1.92-9.6c0.255-5.695-2.965-7.915-1.92-14.4   c0.264-1.064-0.917-0.683-0.96-1.44c2.293-7.909-1.149-16.621,0-26.4c0.816,0.176,0.906-0.375,0.96-0.96   c4.188-0.508,6.782,0.578,10.08,0.96c2.386,3.694,8.306,3.854,10.08,8.16c4.084,0.555,4.541,4.739,9.12,4.8   c3.521,4.639,7.999,8.321,11.52,12.96c2.709,0.171,4.202,1.558,7.68,0.96c0.348-1.572,3.492-0.348,3.84-1.92   c1.46-0.46,4.868,1.028,4.8-0.96c0.816-0.177,0.906,0.375,0.96,0.96c5.174-3.307,16.443-0.518,21.6-3.84   c2.806-0.33,2.494,1.676,4.32,0c1.889-0.769,0.167,2.073,1.44,1.92c2.531-0.348,3.112-2.648,3.359-5.28   c2.849-0.191,1.522-4.558,4.32-4.8c0-0.96,0-1.92,0-2.88c1.553,0.593,0.367-1.553,1.92-0.96c1.434-6.247,4.723-10.638,6.72-16.32   c0.641,0,1.28,0,1.92,0c2.145-3.136,6.711-3.849,9.12-6.72c1.28,0,2.561,0,3.84,0c0.79-0.971,2.269-1.252,3.36-1.92   c5.47,2.53,0.955,15.045,3.84,20.16c-0.386,5.987,1.416,9.784,4.32,12.48c0.302,2.258-0.8,5.92,0.96,6.72   c-0.555,5.045,1.164,12.364-0.96,15.84c1.57,2.739,4.058,6.492,3.84,10.56c-0.059,1.095-0.82,0.502-0.96,0.96   c-0.559,1.841,0.333,5.252-1.92,6.24c-0.265,2.135,0.744,5.543-0.96,6.24c1.906,8.494,7.845,12.955,8.64,22.56   c5.884-0.904,13.4-1.981,16.32,2.4c0.153,1.593-1.066,1.813-1.44,2.88c-0.319,0-0.64,0-0.96,0c-1.023,0.224-0.914-0.686-0.96-1.44   c-2.063-0.39-5.595-0.389-8.64-0.96c-2.592-0.485-5.211-2.335-5.28,1.92c-0.152,1.273,2.689-0.449,1.92,1.44l-0.72,0.24l0.24,0.72   c-0.8,0-1.601,0-2.4,0c0,0.64,0,1.28,0,1.92l0.24,0.48l0.24,0.48c-0.491,0.469-0.972,0.949-1.44,1.44   c0.184,2.696,5.633,0.127,6.24,2.4h-0.96V116.64z M154.08,74.88c0.469-3.188-0.498-4.941-0.96-7.2   c-3.218-0.782-4.969-3.031-9.12-2.88c0.205,2.195,3.146,1.654,3.84,3.36c0.289,3.489-0.15,6.25-0.96,8.64   c1.189-1.21,3.788-1.013,6.24-0.96c0.635-1.203-2.235-1.165-0.479-1.92C153.396,73.963,153.016,75.144,154.08,74.88z M134.88,67.68   c-0.43,3.25-3.172,4.188-3.84,7.2c5.57,0.541,5.717,0.666,11.04,0.96c-0.354-4.55-0.651-3.951-0.96-9.12   C138.491,64.062,138.175,68.238,134.88,67.68z M94.08,79.68c2.881-0.159,4.112-1.968,7.2-1.92c0.725-2.645-1.291-2.549-0.96-4.8   c-2.104-0.136-4.09-0.391-4.32-2.4c-2.24,0-4.48,0-6.72,0C90.246,74.234,94.583,74.537,94.08,79.68z M83.04,73.92   c-0.506,2.693-2.307,4.092-2.88,6.72c1.444-0.483,0.851,1.069,0.96,1.92c1.92,0,3.84,0,5.76,0c0.77-2.912-0.727-5.489-0.96-6.24   c-0.311-0.999,0.836-3.651-0.96-3.36C85.444,74.403,83.891,73.811,83.04,73.92z M120,88.8c1.735-0.455,0.67,1.891,0.96,2.88   c1.287-0.473,1.513-2.007,1.92-3.36c-2.45-1.49,0.406-3.398,0-5.76c0.907-0.213,2.893,0.653,2.4-0.96   c-0.907-0.213-2.893,0.653-2.4-0.96c-1.834,1.536-1.306-0.047-3.84,0c-0.769,1.889,2.073,0.167,1.92,1.44   c-1.747,0.739-0.703,2.839,0,3.84c-1.443-0.484-0.851,1.069-0.96,1.92h-0.96v0.96c-2.288,0.688,0.369-3.568-1.92-2.88   c0,1.28,0,2.56,0,3.84c0.64,0,1.28,0,1.92,0H120V88.8z M115.2,84c-0.64,0-1.28,0-1.92,0c0,0.64,0,1.28,0,1.92   c2.214,0.85,4.234-2.788,1.92-3.36C115.2,83.04,115.2,83.52,115.2,84z M114.24,108c0.32,0,0.64,0,0.96,0c0-0.32,0-0.64,0-0.96   c-0.32,0-0.64,0-0.96,0C114.24,107.36,114.24,107.68,114.24,108z M110.88,112.8c1.731-0.029,2.559-0.961,2.4-2.88   C112.088,110.487,111.784,111.944,110.88,112.8z M56.16,124.8c-2.545,0.53-6.972,0.772-8.16,2.88   c2.296-0.292,4.604-0.442,6.72-0.96c0.607-0.148,0.438-0.797,0.96-0.96c0.998-0.311,3.506,0.896,3.36-0.96   C59.423,122.075,55.125,125.016,56.16,124.8z M168,133.92c0.851-0.109,2.404,0.483,1.92-0.96c-0.64,0-1.279,0-1.92,0   C168,133.28,168,133.6,168,133.92z M144,134.88c0.32,0,0.641,0,0.96,0c0-0.32,0-0.64,0-0.96c-0.319,0-0.64,0-0.96,0   C144,134.24,144,134.56,144,134.88z M157.92,135.36c-0.755-0.365-0.717-1.523-1.92-1.44c0.209,1.071,0.849,1.711,1.92,1.92   l0.24,0.72l0.72-0.24c0.221,1.403-0.678,6.406,0.96,4.8l0.721,0.24l0.72,0.24c0.32,0,0.64,0,0.96,0c0-0.32,0-0.64,0-0.96   c-0.32,0-0.64,0-0.96,0l-0.24-1.2l-1.2,0.24c0-0.48,0-0.96,0-1.44l0.88,0.24l0.561-0.72c0.32,0,0.64,0,0.96,0   c-0.291-0.989,0.774-3.334-0.96-2.88c0,0.16,0,0.32,0,0.48l-0.88-0.24l-0.561,0.72c-0.319,0-0.64,0-0.96,0l-0.239-0.72   L157.92,135.36z M136.32,136.8c0.32,0,0.64,0,0.96,0c0-0.32,0-0.64,0-0.96c-0.32,0-0.64,0-0.96,0   C136.32,136.16,136.32,136.48,136.32,136.8z M153.12,138.72c0-0.96,0-1.92,0-2.88c-2.585-0.186-2.962,1.838-5.28,1.92   c0,1.28,0,2.56,0,3.84c1.815,0.695,0.922-1.319,2.4-0.96v0.96h0.96c0,0.48,0,0.96,0,1.44c1.296-0.784,2.144-2.017,2.88-3.36   c-0.16,0-0.32,0-0.479,0l0.239-0.72L153.12,138.72z M139.2,138.72c0.32,0,0.64,0,0.96,0c0-0.64,0-1.28,0-1.92   c-0.32,0-0.64,0-0.96,0C139.2,137.44,139.2,138.08,139.2,138.72z M144,138.24c0.163-0.963-0.098-1.502-0.96-1.44   c0,2.56,0,5.12,0,7.68l-0.72-0.24l-0.24,0.72c-0.32,0-0.64,0-0.96,0l-0.24-0.72l-0.72,0.24c-0.148-0.652-1.202-0.398-1.92-0.48   l-0.24-0.72l-0.72,0.24c0-0.16,0-0.32,0-0.48c-1.613,0.493-0.747-1.493-0.96-2.4c-2.484,0.084-2.223-2.577-4.32-2.88   c0.594,1.553-1.553,0.367-0.96,1.92c1.955-0.194,2.463,1.058,3.84,1.44c-0.521,2.601,0.44,3.72,1.44,4.8   c-1.831,0.084-1.748,2.034-2.88,2.88c-1.359,1.015-3.699,1.038-7.2,0.96c-0.032-1.408-1.467-1.414-1.92-2.4   c0.502-1.738-1.089-5.569,0.96-5.76l0.24,0.72l0.72-0.24c-0.265,1.064,0.917,0.684,0.96,1.44c-0.312,0.488-1.104,0.496-0.96,1.44   c1.784,0.456,0.838,3.642,3.84,2.88c-0.032-1.408-1.467-1.414-1.92-2.4c1.1-0.18,0.64-1.92,1.44-2.4   c0.907-0.213,2.893,0.653,2.399-0.96c-0.979-1.102-3.986-0.173-5.76-0.48l-0.24-0.72l-0.72,0.24   c-3.537,0.291-10.612,1.064-12.96-2.4c-9.055-0.734-15.401,1.239-24,0.96c1.412,2.269,3.703,3.657,2.88,8.16   c-1.655-0.055-1.225,1.975-2.88,1.92c-0.082,1.362,1.623,0.937,0.96,2.88c1.46,0.46,4.868-1.028,4.8,0.96   c1.977-2.05,3.121,0.793,4.8-0.96c0.058,2.021,3.683,0.477,5.28,0.96c-0.163,0.963,0.098,1.502,0.96,1.44   c-0.92-2.255,5.72-2.255,4.8,0c1.706,0.746,0.29-1.63,1.44-1.44c11.349,0.149,21.124-1.275,30.72-2.88   c-0.807-1.273-2.817-1.343-1.92-4.32l0.72,0.24l0.24-0.72c0.559,0.078,0.854-0.106,0.96-0.48l0.48,0.24l0.479,0.24   c1.894,0.293,0.564-2.636,0.96-3.84l0.72,0.24l0.24-0.72c0.32,0,0.641,0,0.96,0c0-0.32,0-0.64,0-0.96l-0.239-0.48l-0.24-0.48   c0.16,0,0.319,0,0.479,0c0-0.32,0-0.64,0-0.96c-0.319,0-0.64,0-0.96,0l-0.24-0.72L144,138.24z M167.04,136.8c-0.64,0-1.28,0-1.92,0   c1.218,1.264,1.218,3.536,0,4.8c0.64,0,1.28,0,1.92,0c0-1.12,0-2.24,0-3.36l0.72,0.24l0.24-0.72c0.32,0,0.641,0,0.96,0   c0-0.32,0-0.64,0-0.96c-0.558-0.078-0.854,0.106-0.96,0.48l-0.479-0.24L167.04,136.8z M74.88,145.92c-0.16,0-0.32,0-0.48,0   c-0.467,0.013-0.373,0.587-0.48,0.96c0.86,1.699,2.891,2.229,4.8,2.88c0.488-0.312,0.497-1.104,1.44-0.96   c-0.48-3.84,0.42-6.299,1.92-8.16c-3.092,0.533-4.483-0.637-6.72-0.96c0,1.92,0,3.84,0,5.76l-0.72-0.24L74.88,145.92z    M84.96,147.84c-1.545-3.177-0.151-3.62,0.96-6.24c-0.64,0-1.28,0-1.92,0C83.087,143.297,82.021,147.531,84.96,147.84z    M157.92,146.88c-1.374,0.546-2.334,1.506-2.88,2.88c3.057-0.143,4.218-2.182,3.84-5.76c-1.553,0.593-0.366-1.553-1.92-0.96   C157.384,144.216,158.398,144.801,157.92,146.88z M161.28,144c0.32,0,0.64,0,0.96,0c0-0.32,0-0.64,0-0.96c-0.32,0-0.64,0-0.96,0   C161.28,143.36,161.28,143.68,161.28,144z M150.24,150.72c0.041-1.961-2.273-1.566-3.36-2.4c0-1.44,0-2.88,0-4.32   c-1.987-0.068-0.5,3.34-0.96,4.8C147.747,149.053,147.435,151.445,150.24,150.72z M151.681,147.84   c0.842-0.264,1.039-3.874-0.961-2.88C149.878,145.224,149.681,148.834,151.681,147.84z M152.16,153.6c0.32,0,0.64,0,0.96,0   c0-1.28,0-2.56,0-3.84c-0.32,0-0.64,0-0.96,0C152.16,151.04,152.16,152.32,152.16,153.6z M147.84,158.88   c-0.652,1.536-1.056,2.095-1.92,2.88c0.454-0.413-1.36,3.704-0.96,1.92c-0.985,4.385,1.307,8.057,2.88,11.04   c3.711,0.289,5.14,2.861,10.08,1.92c0.771-1.31,2.196-1.964,4.32-1.92c0.652-1.536,1.056-2.095,1.92-2.88   c-0.454,0.413,1.36-3.704,0.96-1.92c0.985-4.385-1.306-8.057-2.88-11.04c-2.124,0.044-3.55-0.61-4.32-1.92   C152.979,156.019,151.551,158.591,147.84,158.88z"/>
	<path fill-rule="evenodd" clip-rule="evenodd" d="M190.08,121.92v-0.96c1.453,1.427,4.025,1.735,4.8,3.84h-0.96v0.96   c-2.762,0.202-4.854-0.266-5.76-1.92h0.96v-0.96c0-0.32,0-0.64,0-0.96H190.08z"/>
	<path fill-rule="evenodd" clip-rule="evenodd" d="M194.88,125.76v-0.96c2.041-0.281,3.051,0.47,3.36,1.92h-0.96v0.96   c-2.041,0.281-3.051-0.47-3.36-1.92H194.88z"/>
	<path fill-rule="evenodd" clip-rule="evenodd" d="M198.24,127.68v-0.96c3.171,0.029,3.31,3.09,6.72,2.88   c-0.338,2.418,2.591,1.57,1.92,4.32c-4.848-0.432-6.872-3.688-9.6-6.24H198.24z"/>
	<path fill-rule="evenodd" clip-rule="evenodd" d="M181.92,124.8v-0.96c2.304,0.096,3.569,1.231,4.32,2.88h-0.96v0.96   c-1.8-0.6-3.806-0.994-4.32-2.88H181.92z"/>
	<path fill-rule="evenodd" clip-rule="evenodd" d="M46.08,146.88h0.96c-1.865,3.254-5.32,4.919-7.2,8.16c-0.32,0-0.64,0-0.96,0   c-1.494-0.586-2.148-2.012-1.92-4.32c3.198-1.442,5.546-3.733,9.12-4.8V146.88z"/>
	<path fill-rule="evenodd" clip-rule="evenodd" d="M50.64,138.48l0.72,0.24c-0.184,1.602-3.202,1.331-4.8,1.92   c-0.816,0.301-1.06,1.286-3.36,0.96c-0.997-0.141-1.145-1.283-2.4-0.96l0.24-0.72l-0.72-0.24c-0.111-2.19,4.282,0.122,4.32-1.92   c1.51-0.55,1.167,0.754,1.92,0.96c1.432-0.008-0.677-3.557,1.44-2.88v0.96h0.96c0,0.32,0,0.64,0,0.96c0.64,0,1.28,0,1.92,0   L50.64,138.48z"/>
	<path fill-rule="evenodd" clip-rule="evenodd" d="M39.6,140.4l0.72,0.24c0.185,1.255,1.539,1.341,0.96,3.36   c-2.28,0.12-3.496,1.304-5.28,1.92v-0.96V144c0.078-0.558-0.106-0.854-0.48-0.96l0.24-0.88l-0.72-0.56   c0.837-1.402,2.417-2.063,4.8-1.92L39.6,140.4z"/>
	<path fill-rule="evenodd" clip-rule="evenodd" d="M27.36,150.72h0.96c-0.414,1.666-2.028,2.132-3.36,2.88   c-0.212,0.907,0.653,2.893-0.96,2.4c-1.946,0.186-0.528-2.992-0.96-4.32c1.628-0.452,2.404-1.756,4.32-1.92V150.72z"/>
	<path fill-rule="evenodd" clip-rule="evenodd" d="M29.28,144.96h0.96c-1.32,1.72-3.784,2.296-6.24,2.88c0-1.12,0-2.24,0-3.36   l0.72,0.24l0.24-0.72c1.44,0,2.88,0,4.32,0V144.96z"/>
	<path fill-rule="evenodd" clip-rule="evenodd" d="M56.16,132H55.2c-0.176-0.816,0.375-0.906,0.96-0.96V132h0.96   c0.177,0.816-0.375,0.905-0.96,0.96V132z"/>
	<path fill-rule="evenodd" clip-rule="evenodd" d="M183.601,111.6l-0.24-0.72c5.946-0.294,13.565,1.086,16.8-1.92   c-0.055,1.655,1.975,1.225,1.92,2.88c0.083,1.203-1.074,1.165-1.439,1.92c-3.733-2.105-12.024-0.251-16.801-0.96   c-0.772-0.115-0.938-0.151-0.96-0.96L183.601,111.6z"/>
	<path fill-rule="evenodd" clip-rule="evenodd" d="M191.76,117.36l-0.239-0.72c5.41-0.29,8.545,1.695,14.399,0.96   c0.12,1.961,2.078,2.083,3.84,2.4l-0.239,0.72l0.72,0.24c0,0.16,0,0.32,0,0.48c3.013,0.987,4.585,3.415,8.64,3.36   c0,1.28,0,2.56,0,3.84c-0.78-0.819-2.694-0.505-2.88-1.92c-0.96,0-1.92,0-2.88,0c-1.066-2.293-5.174-1.546-6.24-3.84   c-6.729,0.169-8.996-4.124-15.84-3.84c0-0.48,0-0.96,0-1.44L191.76,117.36z"/>
	<g>
		<path fill-rule="evenodd" clip-rule="evenodd" fill="none" stroke="#000000" stroke-width="1.0182" stroke-linecap="round" d="    M104.64,141.12c0.856-0.038,1.487,0.041,2.16,0.24"/>
		<path fill-rule="evenodd" clip-rule="evenodd" fill="none" stroke="#000000" stroke-width="1.3291" stroke-linecap="round" d="    M188.16,120.96c0.56,0.366,1.417,0.565,1.92,0.96"/>
		<path fill-rule="evenodd" clip-rule="evenodd" fill="none" stroke="#000000" stroke-width="1.3576" stroke-linecap="round" d="    M193.92,124.8c0.32,0.32,0.641,0.64,0.96,0.96"/>
		<path fill-rule="evenodd" clip-rule="evenodd" fill="none" stroke="#000000" stroke-width="1.3576" stroke-linecap="round" d="    M197.28,126.72c0.32,0.32,0.64,0.64,0.96,0.96"/>
		<path fill-rule="evenodd" clip-rule="evenodd" fill="none" stroke="#000000" stroke-width="1.082" stroke-linecap="round" d="    M187.561,122.4c-2.858-0.507-4.826-1.932-7.902-2.983c-0.083-0.242-0.216-0.698-0.378-1.097"/>
		<path fill-rule="evenodd" clip-rule="evenodd" fill="none" stroke="#000000" stroke-width="1.3832" stroke-linecap="round" d="    M192,132c-1.63-2.703-4.544-3.567-6.72-5.28"/>
		<path fill-rule="evenodd" clip-rule="evenodd" fill="none" stroke="#000000" stroke-width="1.1836" stroke-linecap="round" d="    M181.92,124.8c-2.036-1.421-3.905-3.038-6.101-3.469c-0.084-0.238-0.217-0.692-0.379-1.091"/>
		<path fill-rule="evenodd" clip-rule="evenodd" fill="none" stroke="#000000" stroke-width="1.3576" stroke-linecap="round" d="    M47.04,145.92c-0.32,0.32-0.64,0.64-0.96,0.96"/>
		<path fill-rule="evenodd" clip-rule="evenodd" fill="none" stroke="#000000" stroke-width="1.0369" stroke-linecap="round" d="    M52.08,138c-0.48,0.154-0.96,0.292-1.44,0.48"/>
		<path fill-rule="evenodd" clip-rule="evenodd" fill="none" stroke="#000000" stroke-width="1.0369" stroke-linecap="round" d="    M41.04,139.92c-0.48,0.154-0.96,0.292-1.44,0.48"/>
		<path fill-rule="evenodd" clip-rule="evenodd" fill="none" stroke="#000000" stroke-width="1.7472" stroke-linecap="round" d="    M27.36,150.72c2.769-2.092,5.469-4.244,8.64-5.76"/>
		<path fill-rule="evenodd" clip-rule="evenodd" fill="none" stroke="#000000" stroke-width="1.5989" stroke-linecap="round" d="    M35.76,142.16c-2.479,0.143-4.329,1.685-6.48,2.8"/>
		<path fill-rule="evenodd" clip-rule="evenodd" fill="none" stroke="#000000" stroke-width="1.0295" stroke-linecap="round" d="    M24.72,144.72c-0.168-0.48-0.183-0.96-0.24-1.44"/>
		<path fill-rule="evenodd" clip-rule="evenodd" fill="none" stroke="#000000" stroke-width="1.1758" stroke-linecap="round" d="    M48,136.8c0.56-0.366,1.417-0.565,1.92-0.96"/>
		<path fill-rule="evenodd" clip-rule="evenodd" fill="none" stroke="#000000" stroke-width="1.0369" stroke-linecap="round" d="    M50.64,131.28c-0.48,0.154-0.96,0.293-1.44,0.48"/>
		<path fill-rule="evenodd" clip-rule="evenodd" fill="none" stroke="#000000" stroke-width="1.0182" stroke-linecap="round" d="    M183.12,108.24c2.659,0.521,5.449,0.107,8.16,0.24"/>
		<path fill-rule="evenodd" clip-rule="evenodd" fill="none" stroke="#000000" stroke-width="1.0245" stroke-linecap="round" d="    M181.2,111.36c0.8-0.02,1.6-0.032,2.4,0.24"/>
		<path fill-rule="evenodd" clip-rule="evenodd" fill="none" stroke="#000000" stroke-width="1.0369" stroke-linecap="round" d="    M210.48,120.48c-0.32,0.029-0.641,0.132-0.96,0.24"/>
		<path fill-rule="evenodd" clip-rule="evenodd" fill="none" stroke="#000000" stroke-width="1.8018" stroke-linecap="round" d="    M191.76,117.36c-1.979-1.459-4.82,0.245-6.479-1.68"/>
		<path fill-rule="evenodd" clip-rule="evenodd" fill="none" stroke="#000000" stroke-width="1.1758" stroke-linecap="round" d="    M120,89.76c-0.366-0.559-0.565-1.417-0.96-1.92"/>
		<path fill-rule="evenodd" clip-rule="evenodd" fill="none" stroke="#000000" stroke-width="1.1257" stroke-linecap="round" d="    M187.561,122.4c0.073-0.462,0.325-1.032,0.6-1.44"/>
		<path fill-rule="evenodd" clip-rule="evenodd" fill="none" stroke="#000000" stroke-width="1.1648" stroke-linecap="round" d="    M188.16,120.96c-1.575-1.103-2.917-1.682-4.56-2.64"/>
		<path fill-rule="evenodd" clip-rule="evenodd" fill="none" stroke="#000000" stroke-width="1.0885" stroke-linecap="round" d="    M187.561,122.4c0.072,0.341,0.13,0.619,0.226,0.827c0.368,0.086,0.94,0.337,1.334,0.613"/>
		<path fill-rule="evenodd" clip-rule="evenodd" fill="none" stroke="#000000" stroke-width="1.1758" stroke-linecap="round" d="    M58.08,131.04c-0.559,0.366-1.417,0.565-1.92,0.96"/>
		<path fill-rule="evenodd" clip-rule="evenodd" fill="none" stroke="#000000" stroke-width="1.3576" stroke-linecap="round" d="    M56.16,132c-0.32,0.32-0.64,0.64-0.96,0.96"/>
		<path fill-rule="evenodd" clip-rule="evenodd" fill="none" stroke="#000000" stroke-width="1.0369" stroke-linecap="round" d="    M158.16,136.56c0.154-0.48,0.293-0.96,0.48-1.44"/>
		<path fill-rule="evenodd" clip-rule="evenodd" fill="none" stroke="#000000" stroke-width="1.5305" stroke-linecap="round" d="    M160.561,141.36c-0.049-0.64,0.175-1.28,0.479-1.92"/>
		<path fill-rule="evenodd" clip-rule="evenodd" fill="none" stroke="#000000" stroke-width="1.483" stroke-linecap="round" d="    M160.72,138.48c-0.336-1.093,0.033-2.269-0.319-3.36"/>
		<path fill-rule="evenodd" clip-rule="evenodd" fill="none" stroke="#000000" stroke-width="1.0263" stroke-linecap="round" d="    M144.601,140.16c-0.15-0.539-0.14-1.385,0.119-2.16"/>
		<path fill-rule="evenodd" clip-rule="evenodd" fill="none" stroke="#000000" stroke-width="1.0295" stroke-linecap="round" d="    M167.76,138.48c-0.168-0.48-0.183-0.96-0.239-1.44"/>
		<path fill-rule="evenodd" clip-rule="evenodd" fill="none" stroke="#000000" stroke-width="1.0369" stroke-linecap="round" d="    M125.521,142.32c0.154-0.48,0.292-0.96,0.479-1.44"/>
		<path fill-rule="evenodd" clip-rule="evenodd" fill="none" stroke="#000000" stroke-width="1.0263" stroke-linecap="round" d="    M140.88,146.64c-0.28-0.8-0.246-1.6,0-2.4"/>
		<path fill-rule="evenodd" clip-rule="evenodd" fill="none" stroke="#000000" stroke-width="1.0182" stroke-linecap="round" d="    M137.76,144.24c0.029-0.32,0.133-0.64,0.24-0.96"/>
		<path fill-rule="evenodd" clip-rule="evenodd" fill="none" stroke="#000000" stroke-width="1.0182" stroke-linecap="round" d="    M144.601,140.16c0.385,0,0.733,0,1.08,0"/>
		<path fill-rule="evenodd" clip-rule="evenodd" fill="none" stroke="#000000" stroke-width="0.7799" stroke-linecap="round" d="    M74.64,145.2c0.497,0.53,0.842,0.816,1.177,1.028c0.589-0.473,1.021-0.758,1.703-0.788"/>
		<path fill-rule="evenodd" clip-rule="evenodd" fill="none" stroke="#000000" stroke-width="1.6878" stroke-linecap="round" d="    M153.84,138.96c-0.851,0.207-1.596,0.659-2.434,0.885c-0.023,0.324-0.615,1.174-1.166,1.754"/>
		<path fill-rule="evenodd" clip-rule="evenodd" fill="none" stroke="#000000" stroke-width="1.0263" stroke-linecap="round" d="    M144.601,140.16c-0.15,0.54-0.14,1.386,0.119,2.16"/>
		<path fill-rule="evenodd" clip-rule="evenodd" fill="none" stroke="#000000" stroke-width="1.0295" stroke-linecap="round" d="    M142.561,145.68c0.014-0.48-0.11-0.96-0.24-1.44"/>
	</g>
</g>
<metadata><rdf:RDF><cc:Work><dc:format>image/svg+xml</dc:format><dc:type rdf:resource="http://purl.org/dc/dcmitype/StillImage"/><cc:license rdf:resource="http://creativecommons.org/licenses/publicdomain/"/><dc:publisher><cc:Agent rdf:about="http://openclipart.org/"><dc:title>Open Clip Art Library</dc:title></cc:Agent></dc:publisher><dc:title>black cat</dc:title><dc:date>2006-10-04T22:32:34</dc:date><dc:description>a black cat with a collar</dc:description><dc:source>http://openclipart.org/detail/381/black-cat-by-johnny_automatic</dc:source><dc:creator><cc:Agent><dc:title>johnny_automatic</dc:title></cc:Agent></dc:creator><dc:subject><rdf:Bag><rdf:li>animal</rdf:li><rdf:li>black</rdf:li><rdf:li>black &amp; white</rdf:li><rdf:li>cat</rdf:li><rdf:li>clip art</rdf:li><rdf:li>clipart</rdf:li><rdf:li>feline</rdf:li><rdf:li>mammal</rdf:li><rdf:li>no contour</rdf:li><rdf:li>pet</rdf:li><rdf:li>silhouette</rdf:li></rdf:Bag></dc:subject></cc:Work><cc:License rdf:about="http://creativecommons.org/licenses/publicdomain/"><cc:permits rdf:resource="http://creativecommons.org/ns#Reproduction"/><cc:permits rdf:resource="http://creativecommons.org/ns#Distribution"/><cc:permits rdf:resource="http://creativecommons.org/ns#DerivativeWorks"/></cc:License></rdf:RDF></metadata></svg>
